<mxfile host="app.diagrams.net" modified="2024-03-10T08:25:20.381Z" agent="Mozilla/5.0 (Windows NT 10.0; Win64; x64) AppleWebKit/537.36 (KHTML, like Gecko) Chrome/122.0.0.0 Safari/537.36" version="24.0.4" etag="Hno_aKibC9tl0xUt2hKb" type="github">
  <diagram name="Страница — 1" id="B_WInsPUnKLlf17BtBto">
    <mxGraphModel>
      <root>
        <mxCell id="0" />
        <mxCell id="1" parent="0" />
      </root>
    </mxGraphModel>
  </diagram>
</mxfile>
